<svg width="172" height="172" viewBox="0 0 172 172" fill="none" xmlns="http://www.w3.org/2000/svg">
<path fill-rule="evenodd" clip-rule="evenodd" d="M78.1738 141.812C68.0579 143.471 64.8679 138.124 64.8679 138.124C60.2991 132.076 57.7306 123.568 56.3137 115.165C50.2565 117.794 41.8917 120.215 33.4481 118.808C19.3649 116.463 19.5692 101.87 20.2344 94.9584C20.9175 87.8534 22.2584 81.4043 22.2584 81.4043L24.1798 72.9144C25.7428 65.6753 32.2339 68.5448 32.2339 68.5448C34.7764 60.8312 41.0035 65.4972 41.0035 65.4972C41.0035 65.4972 45.0986 58.2865 48.4196 60.0695C51.8256 61.8987 49.2307 66.8736 47.069 71.018C46.7001 71.7252 46.3438 72.4083 46.0321 73.0474C46.0321 73.0474 46.3977 74.6115 45.3144 78.5108C45.3144 78.5108 45.2987 80.7872 42.8756 87.0656C40.9466 92.0637 40.9467 92.5392 40.9469 93.8901L40.9469 93.9338C40.9469 94.7342 41.7096 95.4068 42.467 95.1501C43.4662 94.811 44.406 94.5103 45.2925 94.2266L45.293 94.2265C49.3617 92.9246 52.3085 91.9818 54.7339 89.3277C54.8045 87.0782 54.904 85.7594 54.904 85.7594L54.926 79.9901C54.5887 75.5388 53.6595 54.8253 53.6595 54.8253L53.2509 51.3472C53.2509 51.3472 45.6221 42.9589 51.9309 38.8501C56.641 35.7827 59.0851 42.7556 59.0851 42.7556L67.5268 39.9533C67.5268 39.9533 63.5479 32.4167 65.1309 31.8908C66.7128 31.3659 69.7582 33.2883 69.7582 33.2883C69.7582 33.2883 66.8699 28.4577 68.2821 27.4185C68.8325 27.0135 70.5765 28.1647 72.8226 29.6474C76.3395 31.969 81.0874 35.1031 84.4113 34.3474L85.7533 33.9012L87.0984 33.4549C87.0984 33.4549 85.4935 26.0126 90.962 26C98.1623 25.9843 97.2467 35.79 97.2467 35.79L99.2058 39.7029C99.2058 39.7029 108.441 54.1684 111.888 59.5856L117.851 66.6592L120.173 68.7921C120.389 68.9592 120.653 69.1881 120.959 69.4985C123.171 71.4491 138.082 85.3817 141.276 109.151L78.1738 141.812Z" fill="#D7E1EE"/>
<path fill-rule="evenodd" clip-rule="evenodd" d="M91.5088 33.4481C91.7875 33.6461 92.1101 33.7456 92.4349 33.7456C92.702 33.7456 92.9702 33.6786 93.2164 33.5424C93.7559 33.2449 94.0702 32.6791 94.0367 32.0673C93.9927 31.2711 93.8052 30.5829 93.4804 30.0224C93.273 29.6662 92.9671 29.3467 92.5721 29.0732C92.1688 28.7946 91.668 28.7129 91.1987 28.8449C90.7419 28.9748 90.3721 29.2974 90.1836 29.7311C89.8996 30.3869 89.8588 31.0302 90.062 31.642C90.2873 32.3198 90.7734 32.9274 91.5088 33.4481ZM53.2039 45.6831C53.5014 46.1692 54.0042 46.4489 54.5542 46.4489C54.6297 46.4489 54.7061 46.4437 54.7837 46.4332C55.4248 46.3431 55.9319 45.8958 56.1058 45.2651C56.308 44.5339 56.3121 43.8655 56.1173 43.2788C55.9319 42.7194 55.5568 42.2647 55.0047 41.9295C54.6024 41.6854 54.1142 41.6446 53.6659 41.8132C53.2028 41.9882 52.854 42.3559 52.7083 42.8231C52.5816 43.2296 52.5386 43.6225 52.5816 43.9912C52.6455 44.5444 52.855 45.1143 53.2039 45.6831Z" fill="#FF004A"/>
<path fill-rule="evenodd" clip-rule="evenodd" d="M80.658 55.1607C88.8651 52.5877 93.9837 58.7498 95.3236 63.0231L95.2985 62.9445C96.6384 67.2177 94.2373 71.8115 89.964 73.1504L83.2875 75.2435C79.0133 76.5834 74.4205 74.1823 73.0806 69.908L73.1057 69.9876C71.7658 65.7133 72.3714 57.7577 80.658 55.1607Z" fill="white"/>
<path fill-rule="evenodd" clip-rule="evenodd" d="M95.1658 55.2047C95.0128 55.2047 94.8578 55.1639 94.7164 55.0801C92.3247 53.6469 91.2236 54.0544 91.2131 54.0607C90.8569 54.2451 90.44 54.1561 90.1739 53.8564C89.9067 53.5579 89.8963 53.1053 90.1215 52.7743C91.5159 50.7146 94.7939 50.2443 95.1637 50.1971C95.6425 50.1395 96.0804 50.4747 96.1422 50.9545C96.204 51.4344 95.8646 51.8733 95.3858 51.9362C94.9605 51.9917 94.1171 52.1708 93.3042 52.5113C93.9589 52.7114 94.7289 53.0435 95.6173 53.5757C96.0322 53.825 96.1673 54.3624 95.918 54.7784C95.7546 55.0518 95.4633 55.2047 95.1658 55.2047ZM83.538 58.075L79.7173 59.2735C78.5607 59.636 78.4727 61.2388 79.5821 61.727L82.0147 62.7935L82.0204 62.796C81.9828 62.9433 81.9826 63.1025 82.0275 63.2599L82.5366 65.0408C82.5485 65.0825 82.5632 65.1225 82.5804 65.1609C79.4908 65.6256 77.4117 63.6394 77.2806 63.5097C76.9339 63.1661 76.3723 63.1651 76.0256 63.5108C75.6788 63.8575 75.6778 64.4201 76.0245 64.7679C76.1167 64.8601 78.3073 67.0161 81.6743 67.0161H81.6817C83.962 67.0142 86.193 66.0362 88.3229 64.1088C88.7469 64.5617 89.2982 64.9997 90.0053 65.403C90.1436 65.4816 90.2955 65.5193 90.4443 65.5193C90.7533 65.5193 91.0529 65.3579 91.2174 65.0698C91.4605 64.6435 91.3117 64.1008 90.8853 63.8578C88.0348 62.2329 88.9839 60.2644 89.1054 60.0392C89.3422 59.6128 89.1924 59.0754 88.7681 58.8344C88.3407 58.5924 87.798 58.7401 87.556 59.1686C87.1359 59.9082 86.8203 61.2185 87.3488 62.5874C86.2694 63.6046 85.2366 64.2685 84.2716 64.6766C84.2659 64.6349 84.2572 64.5932 84.2453 64.5516L83.7362 62.7706C83.6992 62.6407 83.635 62.5258 83.5515 62.4304C83.5909 62.3829 83.6274 62.332 83.6605 62.278L85.0486 60.0131C85.6824 58.9791 84.6945 57.7136 83.538 58.075ZM67.9078 57.0791C66.4485 57.4961 65.603 59.0172 66.02 60.4776C66.4369 61.938 67.9591 62.7824 69.4185 62.3654C70.8778 61.9474 71.7232 60.4263 71.3063 58.9669C70.8883 57.5066 69.3671 56.6611 67.9078 57.0791Z" fill="#262626"/>
<path fill-rule="evenodd" clip-rule="evenodd" d="M54.9087 82.6084C54.9087 82.6084 80.4507 91.949 91.7304 88.2048C103.009 84.4606 115.018 63.0881 115.018 63.0881L120.231 68.8123C120.231 68.8123 116.392 99.2079 94.2939 106.347C76.4017 112.128 54.9014 89.1403 54.9014 89.1403L54.9087 82.6084Z" fill="#FF004A"/>
<path fill-rule="evenodd" clip-rule="evenodd" d="M56.6111 100.561C56.6111 100.561 54.8354 107.355 56.7305 116.529L56.6111 100.561Z" fill="#D7E1EE"/>
<path fill-rule="evenodd" clip-rule="evenodd" d="M56.6108 100.561C56.374 101.881 56.2525 103.215 56.1582 104.545C56.0765 105.878 56.0199 107.212 56.0576 108.545C56.0754 111.216 56.3572 113.872 56.7302 116.529C56.4054 115.228 56.1247 113.911 55.9623 112.575C55.7716 111.242 55.7119 109.896 55.6669 108.551C55.6616 107.205 55.714 105.857 55.8607 104.519C56.0063 103.182 56.2347 101.85 56.6108 100.561Z" fill="#B2BAC4"/>
<path fill-rule="evenodd" clip-rule="evenodd" d="M41.585 95.0183C41.585 95.0183 39.7496 99.3869 37.5171 100.561L41.585 95.0183Z" fill="#D7E1EE"/>
<path fill-rule="evenodd" clip-rule="evenodd" d="M41.585 95.0183C41.2613 96.1476 40.7207 97.1984 40.0869 98.1895C39.7475 98.6693 39.3976 99.1491 38.9701 99.5618C38.5459 99.9725 38.0713 100.354 37.5171 100.561C37.9885 100.212 38.3824 99.7975 38.748 99.3586C39.1147 98.9207 39.4552 98.4576 39.7621 97.9726C40.42 97.0287 40.9679 96.0125 41.585 95.0183Z" fill="#B2BAC4"/>
<path fill-rule="evenodd" clip-rule="evenodd" d="M91.1813 77.0563C89.2097 87.9473 80.5763 123.849 71.1885 140.875C70.0142 143.005 71.5091 145.619 73.9406 145.674L130.433 146.96C132.015 146.995 133.391 145.881 133.683 144.326C135.86 132.732 143.341 92.3651 145.38 78.5072C145.666 76.5649 144.171 74.8186 142.209 74.8039L94.3881 74.3995C92.8145 74.3869 91.4621 75.5079 91.1813 77.0563Z" fill="#F4F6FF"/>
<path fill-rule="evenodd" clip-rule="evenodd" d="M72.76 145.615C72.76 145.615 67.0746 145.734 66.3926 133.138L121.744 134.396C121.744 134.396 119.601 145.121 129.688 146.875L72.76 145.615Z" fill="#A7C3FF"/>
<path fill-rule="evenodd" clip-rule="evenodd" d="M123.389 101.381H123.373C123.084 101.371 122.922 101.31 122.803 101.265L122.801 101.264C122.714 101.231 122.671 101.215 122.543 101.211C122.373 101.206 122.285 101.214 122.201 101.222L122.188 101.223C122.067 101.235 121.946 101.243 121.705 101.24C121.526 101.237 121.437 101.243 121.347 101.251C121.227 101.262 121.108 101.274 120.87 101.265C120.644 101.257 120.527 101.241 120.414 101.226L120.402 101.225C120.312 101.211 120.222 101.197 120.04 101.192C119.867 101.187 119.773 101.19 119.686 101.193L119.665 101.194C119.551 101.2 119.438 101.204 119.212 101.197C119.022 101.192 118.928 101.194 118.832 101.199C118.719 101.204 118.607 101.207 118.382 101.201C118.157 101.194 118.045 101.183 117.933 101.17C117.838 101.159 117.744 101.148 117.554 101.143C117.314 101.136 117.192 101.113 117.072 101.09L117.063 101.088C116.979 101.072 116.895 101.055 116.726 101.051C116.507 101.043 116.398 101.034 116.289 101.024C116.191 101.016 116.094 101.009 115.898 101.002C115.708 100.996 115.614 101 115.519 101.006C115.407 101.01 115.294 101.014 115.069 101.01C114.903 101.004 114.811 101.009 114.727 101.012L114.696 101.014L114.656 101.016C114.554 101.022 114.44 101.029 114.239 101.022C114.005 101.015 113.89 100.999 113.775 100.984C113.684 100.971 113.593 100.959 113.412 100.953C113.271 100.945 113.204 100.958 113.124 100.973L113.103 100.977C112.988 100.998 112.843 101.021 112.585 101.017C112.408 101.011 112.315 101.015 112.227 101.019L112.208 101.02L112.172 101.022C112.07 101.026 111.959 101.03 111.759 101.024C111.502 101.016 111.361 100.981 111.247 100.953L111.243 100.952C111.153 100.929 111.088 100.913 110.933 100.909C110.688 100.901 110.567 100.879 110.446 100.855C110.362 100.838 110.279 100.823 110.109 100.818L109.287 100.797C109.155 100.787 109.092 100.801 109.017 100.819L108.987 100.825C108.869 100.852 108.72 100.883 108.455 100.874C108.197 100.865 108.055 100.831 107.941 100.802L107.933 100.8C107.846 100.779 107.781 100.763 107.63 100.759C107.497 100.749 107.43 100.763 107.357 100.777L107.357 100.777C107.345 100.78 107.333 100.782 107.32 100.785L107.32 100.785C107.203 100.807 107.06 100.834 106.801 100.826C106.581 100.819 106.471 100.81 106.362 100.8C106.264 100.792 106.168 100.785 105.974 100.778C105.804 100.774 105.719 100.783 105.635 100.793C105.512 100.81 105.389 100.824 105.145 100.816C104.894 100.808 104.768 100.78 104.643 100.752C104.563 100.734 104.482 100.716 104.321 100.711C104.084 100.704 103.967 100.686 103.849 100.668L103.825 100.665C103.744 100.653 103.656 100.641 103.494 100.636C103.329 100.63 103.236 100.634 103.152 100.637L103.116 100.638C103.004 100.643 102.892 100.646 102.668 100.641C102.45 100.634 102.336 100.62 102.227 100.607L102.213 100.605L102.211 100.605C102.12 100.594 102.028 100.582 101.844 100.577C101.711 100.569 101.656 100.584 101.575 100.607L101.563 100.61L101.54 100.615C101.421 100.645 101.271 100.683 101.013 100.669C100.803 100.663 100.697 100.658 100.59 100.651L98.5359 100.59C98.2844 100.581 98.1598 100.555 98.0361 100.529L98.0343 100.528C97.9532 100.511 97.8726 100.493 97.7103 100.488C97.4879 100.482 97.3768 100.471 97.2652 100.459L97.2609 100.459C97.1677 100.448 97.0734 100.44 96.8859 100.434C96.6973 100.428 96.6009 100.431 96.5056 100.435C96.3945 100.439 96.2835 100.441 96.0624 100.436C95.8875 100.433 95.8016 100.44 95.7146 100.448C95.5952 100.461 95.4747 100.471 95.2369 100.467C95.06 100.461 94.9608 100.46 94.8711 100.459L94.8283 100.459L94.4135 100.451C94.1453 100.443 93.9337 100.22 93.9421 99.9516C93.9504 99.6824 94.1736 99.4655 94.4428 99.4802L94.8346 99.4865L94.8797 99.4869C94.9748 99.4877 95.0794 99.4886 95.2673 99.4949C95.4381 99.497 95.524 99.4907 95.6109 99.4823C95.7314 99.4697 95.8519 99.4603 96.0928 99.4635C96.2679 99.4693 96.3626 99.4661 96.4516 99.4631L96.4721 99.4624C96.5831 99.4582 96.6941 99.4561 96.9162 99.4614C97.1383 99.4687 97.2504 99.4802 97.3604 99.4917L97.381 99.4938C97.4698 99.5026 97.5638 99.512 97.7407 99.5169C97.9911 99.5253 98.1158 99.5515 98.2394 99.5776L98.2411 99.578C98.3223 99.5957 98.4029 99.6133 98.5652 99.6175L100.22 99.6625C100.431 99.6688 100.538 99.6751 100.644 99.6814L101.044 99.6981C101.183 99.7044 101.237 99.6898 101.324 99.6657L101.325 99.6656L101.338 99.6623C101.459 99.6323 101.609 99.5948 101.875 99.6059C102.102 99.6132 102.216 99.6267 102.33 99.6402L102.332 99.6405C102.424 99.652 102.515 99.6625 102.698 99.6688C102.863 99.6743 102.956 99.671 103.04 99.6679L103.075 99.6667C103.187 99.6615 103.3 99.6583 103.524 99.6635C103.751 99.6716 103.869 99.6884 103.982 99.7046L103.995 99.7065L104.008 99.7085C104.093 99.7215 104.181 99.735 104.35 99.74C104.593 99.7461 104.718 99.7733 104.839 99.7996L104.854 99.8029C104.935 99.8217 105.014 99.8385 105.176 99.8437C105.329 99.8504 105.413 99.8407 105.491 99.8319L105.515 99.8291C105.639 99.8134 105.761 99.8008 106.005 99.806C106.203 99.8127 106.311 99.821 106.411 99.8287L106.443 99.8312C106.54 99.8395 106.637 99.8479 106.831 99.8542C106.973 99.8591 107.039 99.8475 107.121 99.8331L107.138 99.8301C107.254 99.8081 107.4 99.7819 107.661 99.7872C107.911 99.7954 108.053 99.8295 108.165 99.8565L108.173 99.8584L108.181 99.8604C108.268 99.8814 108.334 99.8973 108.484 99.9014C108.625 99.9093 108.687 99.8956 108.77 99.8771L108.784 99.8741L108.792 99.8724C108.91 99.8475 109.056 99.8167 109.317 99.8259L110.139 99.8458C110.383 99.8532 110.506 99.8762 110.627 99.9003C110.711 99.916 110.795 99.9317 110.964 99.937C111.223 99.9454 111.365 99.9799 111.479 100.008L111.48 100.008C111.57 100.031 111.635 100.048 111.789 100.052C111.974 100.057 112.068 100.053 112.161 100.049C112.275 100.044 112.389 100.04 112.616 100.046C112.752 100.056 112.819 100.043 112.895 100.027L112.926 100.021L112.948 100.017C113.06 99.9962 113.201 99.9702 113.442 99.981C113.656 99.9877 113.77 100.002 113.877 100.016L113.907 100.02C113.997 100.032 114.087 100.045 114.268 100.05C114.424 100.055 114.514 100.051 114.595 100.047L114.636 100.045C114.752 100.038 114.867 100.031 115.1 100.038C115.285 100.043 115.378 100.039 115.472 100.034L115.473 100.034C115.587 100.028 115.7 100.023 115.928 100.03C116.129 100.037 116.238 100.045 116.34 100.053L116.372 100.055C116.467 100.064 116.564 100.072 116.756 100.078C117.001 100.086 117.124 100.11 117.247 100.134L117.248 100.134L117.258 100.136C117.339 100.151 117.422 100.167 117.585 100.172C117.812 100.179 117.925 100.191 118.038 100.203C118.132 100.214 118.226 100.224 118.413 100.229C118.602 100.237 118.697 100.232 118.792 100.227C118.905 100.223 119.018 100.22 119.243 100.225C119.433 100.231 119.528 100.228 119.623 100.224C119.734 100.22 119.848 100.217 120.07 100.221C120.305 100.228 120.423 100.245 120.539 100.262L120.554 100.264C120.64 100.276 120.73 100.288 120.901 100.293C121.081 100.299 121.17 100.292 121.259 100.283C121.378 100.271 121.498 100.262 121.735 100.268C121.912 100.274 122 100.267 122.089 100.257C122.21 100.243 122.331 100.233 122.572 100.239C122.861 100.248 123.024 100.309 123.144 100.354L123.147 100.355C123.23 100.387 123.276 100.404 123.404 100.408C123.672 100.418 123.883 100.642 123.874 100.91C123.865 101.173 123.649 101.381 123.389 101.381ZM120.89 109.947H120.875C120.68 109.94 120.569 109.931 120.469 109.922L120.428 109.918L120.409 109.917L120.409 109.917C120.319 109.908 120.223 109.898 120.042 109.893C119.819 109.886 119.708 109.878 119.596 109.867C119.499 109.859 119.402 109.85 119.206 109.844C119.06 109.836 118.994 109.85 118.909 109.868L118.898 109.87L118.885 109.873C118.769 109.894 118.624 109.921 118.37 109.914C118.119 109.907 117.994 109.881 117.869 109.854L117.861 109.852C117.782 109.836 117.7 109.819 117.541 109.814C117.349 109.807 117.255 109.811 117.16 109.816C117.048 109.821 116.936 109.824 116.712 109.819L115.884 109.789C115.692 109.781 115.596 109.784 115.5 109.789C115.388 109.794 115.276 109.796 115.053 109.79C114.815 109.782 114.693 109.76 114.574 109.739L114.574 109.739L114.566 109.737C114.481 109.722 114.396 109.707 114.225 109.702C114.003 109.694 113.893 109.685 113.783 109.674C113.687 109.666 113.59 109.659 113.397 109.652C113.219 109.644 113.125 109.65 113.035 109.655L113.021 109.656C112.907 109.66 112.794 109.664 112.569 109.66C112.412 109.654 112.345 109.666 112.254 109.683C112.137 109.705 111.993 109.728 111.735 109.722C111.514 109.714 111.404 109.707 111.294 109.697C111.198 109.689 111.101 109.681 110.91 109.674C110.665 109.667 110.54 109.641 110.418 109.615L110.41 109.614C110.329 109.596 110.249 109.578 110.087 109.574C109.852 109.566 109.734 109.549 109.617 109.531L109.615 109.531L109.615 109.531C109.527 109.517 109.439 109.504 109.263 109.498C109.11 109.495 109.03 109.508 108.952 109.52L108.945 109.521C108.816 109.542 108.688 109.561 108.431 109.557C108.183 109.55 108.058 109.524 107.933 109.496L107.925 109.495C107.847 109.478 107.766 109.462 107.609 109.456C107.49 109.449 107.441 109.464 107.365 109.487L107.35 109.492C107.23 109.529 107.066 109.569 106.782 109.57C106.508 109.56 106.352 109.509 106.237 109.472L106.232 109.47L106.223 109.467C106.142 109.442 106.09 109.425 105.958 109.421C105.751 109.414 105.64 109.405 105.537 109.396L105.514 109.394C105.418 109.384 105.322 109.376 105.129 109.37C104.988 109.361 104.926 109.376 104.841 109.395L104.83 109.398L104.826 109.399C104.708 109.422 104.562 109.45 104.299 109.445C104.074 109.438 103.955 109.418 103.842 109.399L103.842 109.399L103.819 109.396C103.733 109.38 103.649 109.365 103.476 109.36C103.301 109.357 103.215 109.363 103.128 109.373C103.007 109.386 102.886 109.396 102.646 109.392C102.425 109.384 102.314 109.374 102.203 109.363L102.203 109.363L102.181 109.361H102.181C102.092 109.353 101.998 109.345 101.82 109.34C101.604 109.333 101.496 109.326 101.388 109.317L101.318 109.313C101.238 109.309 101.144 109.303 100.993 109.298C100.752 109.29 100.631 109.269 100.511 109.247C100.426 109.231 100.341 109.217 100.169 109.211C99.97 109.205 99.8667 109.205 99.7673 109.205H99.7672C99.6599 109.205 99.5572 109.205 99.3428 109.198C99.2196 109.19 99.1654 109.204 99.0891 109.225L99.0684 109.23L99.0447 109.237C98.9305 109.268 98.7744 109.311 98.5142 109.295C98.2387 109.287 98.0811 109.233 97.9653 109.193L97.96 109.191L97.9547 109.19C97.8711 109.161 97.8232 109.145 97.6939 109.141C97.5685 109.132 97.5142 109.148 97.4385 109.169L97.4184 109.175L97.3974 109.18C97.282 109.21 97.1246 109.252 96.8631 109.241C96.5782 109.231 96.4179 109.175 96.3016 109.133C96.2157 109.1 96.1686 109.085 96.0387 109.08C95.8459 109.074 95.7485 109.076 95.651 109.078C95.541 109.082 95.4321 109.084 95.2121 109.077C95.075 109.069 95.0095 109.081 94.9325 109.096L94.9051 109.101C94.7888 109.125 94.6453 109.154 94.3845 109.145C94.1337 109.138 93.9923 109.102 93.8794 109.073L93.8794 109.073L93.8659 109.07L93.8637 109.069C93.7768 109.047 93.7138 109.03 93.5631 109.026C93.3947 109.02 93.2998 109.022 93.2146 109.024L93.1766 109.025C93.0666 109.029 92.9566 109.033 92.7387 109.025C92.5881 109.019 92.4964 109.021 92.4177 109.023C92.3951 109.023 92.3736 109.024 92.3521 109.024L92.3309 109.024C92.2284 109.027 92.119 109.031 91.9152 109.024C91.647 109.015 91.4354 108.791 91.4438 108.524C91.4511 108.255 91.6732 108.053 91.9435 108.052C92.1331 108.06 92.2295 108.056 92.3238 108.052L92.3687 108.051H92.3688C92.4672 108.049 92.5756 108.046 92.769 108.053C92.9576 108.059 93.0529 108.056 93.1483 108.053H93.1483L93.1497 108.053C93.2613 108.051 93.3713 108.049 93.5935 108.054C93.8544 108.062 93.9968 108.099 94.1121 108.13L94.1182 108.132C94.2031 108.153 94.2675 108.169 94.4148 108.174C94.5524 108.184 94.6184 108.17 94.6972 108.153L94.7187 108.148C94.8349 108.125 94.9806 108.1 95.2425 108.105C95.4352 108.111 95.5327 108.109 95.6301 108.107C95.739 108.103 95.849 108.101 96.068 108.108C96.3518 108.118 96.5119 108.175 96.6291 108.217L96.6306 108.217C96.7154 108.249 96.7626 108.265 96.8935 108.268C97.0222 108.277 97.0754 108.261 97.1575 108.237L97.1659 108.235C97.2832 108.205 97.4446 108.164 97.7232 108.17C98.0019 108.178 98.16 108.232 98.2761 108.272L98.2774 108.273C98.3644 108.303 98.4115 108.319 98.5435 108.323C98.6647 108.333 98.7197 108.318 98.7907 108.298L98.8201 108.29L98.8249 108.289C98.9418 108.26 99.1004 108.22 99.3732 108.226C99.5648 108.231 99.6677 108.231 99.7636 108.231H99.7636C99.8754 108.231 99.9776 108.231 100.2 108.239C100.442 108.246 100.562 108.267 100.684 108.29C100.769 108.306 100.854 108.321 101.023 108.326C101.239 108.333 101.347 108.341 101.455 108.349L101.525 108.353C101.605 108.358 101.699 108.363 101.851 108.368C102.072 108.375 102.183 108.386 102.294 108.396L102.316 108.398C102.404 108.406 102.499 108.415 102.676 108.419C102.851 108.422 102.938 108.416 103.025 108.407C103.146 108.395 103.266 108.388 103.506 108.389C103.746 108.396 103.866 108.417 103.986 108.438C104.072 108.453 104.158 108.468 104.33 108.473C104.478 108.479 104.539 108.466 104.629 108.446L104.631 108.446L104.643 108.443C104.758 108.418 104.903 108.387 105.159 108.397C105.381 108.405 105.492 108.415 105.602 108.426C105.699 108.435 105.795 108.442 105.988 108.449C106.264 108.457 106.416 108.507 106.536 108.547L106.537 108.547L106.544 108.549C106.627 108.576 106.679 108.593 106.811 108.597C106.921 108.607 106.971 108.592 107.038 108.571L107.069 108.562C107.188 108.526 107.354 108.48 107.639 108.484C107.884 108.491 108.009 108.518 108.13 108.544L108.137 108.545C108.218 108.563 108.299 108.58 108.461 108.585C108.616 108.591 108.696 108.577 108.774 108.564L108.782 108.563L108.799 108.56C108.922 108.538 109.05 108.514 109.292 108.527C109.528 108.535 109.645 108.552 109.761 108.57L109.776 108.572C109.86 108.584 109.948 108.597 110.117 108.602C110.367 108.61 110.492 108.636 110.615 108.662C110.696 108.68 110.777 108.698 110.939 108.703C111.157 108.71 111.266 108.719 111.375 108.728L111.375 108.728C111.472 108.737 111.569 108.744 111.764 108.749C111.923 108.757 111.989 108.744 112.08 108.726L112.081 108.726C112.197 108.705 112.341 108.679 112.598 108.688C112.786 108.693 112.88 108.689 112.974 108.684L113.012 108.683C113.114 108.679 113.226 108.675 113.426 108.68C113.648 108.688 113.758 108.697 113.868 108.706C113.964 108.715 114.061 108.723 114.255 108.729C114.498 108.737 114.619 108.759 114.741 108.782L114.753 108.784C114.835 108.798 114.919 108.812 115.082 108.817C115.262 108.824 115.357 108.821 115.447 108.818L115.467 108.817C115.579 108.812 115.691 108.81 115.914 108.816L116.743 108.847C116.915 108.852 117.008 108.848 117.096 108.845L117.118 108.845L117.12 108.845H117.12C117.233 108.84 117.345 108.836 117.571 108.842C117.816 108.849 117.942 108.875 118.065 108.901L118.071 108.902C118.153 108.92 118.235 108.937 118.399 108.942C118.554 108.945 118.619 108.934 118.71 108.917C118.828 108.894 118.973 108.868 119.235 108.873C119.458 108.879 119.569 108.889 119.68 108.899C119.778 108.908 119.875 108.916 120.071 108.921C120.297 108.928 120.409 108.939 120.523 108.95C120.618 108.96 120.714 108.968 120.906 108.975C121.174 108.984 121.385 109.208 121.375 109.476C121.367 109.739 121.151 109.947 120.89 109.947ZM117.987 119.176C117.997 119.177 118.007 119.177 118.016 119.177C118.272 119.177 118.486 118.978 118.501 118.719C118.517 118.452 118.313 118.221 118.045 118.206L118.015 118.204C117.81 118.194 117.703 118.188 117.596 118.193C117.589 118.193 117.581 118.193 117.574 118.193C117.483 118.193 117.388 118.193 117.209 118.183L116.376 118.138C116.146 118.122 116.031 118.125 115.916 118.128L115.916 118.128C115.899 118.128 115.882 118.128 115.864 118.128C115.784 118.129 115.693 118.129 115.54 118.121C115.355 118.109 115.248 118.108 115.153 118.106C115.136 118.106 115.119 118.105 115.103 118.105C115.004 118.104 114.905 118.102 114.709 118.09C114.534 118.08 114.438 118.069 114.35 118.06C114.341 118.059 114.332 118.058 114.323 118.057C114.213 118.043 114.105 118.031 113.883 118.018C113.687 118.006 113.577 118.006 113.476 118.007C113.463 118.007 113.45 118.007 113.437 118.007C113.342 118.013 113.247 118.011 113.054 117.997C112.869 117.986 112.777 117.972 112.685 117.958C112.571 117.941 112.457 117.924 112.229 117.91C112.01 117.897 111.902 117.892 111.793 117.889L111.397 117.871C111.226 117.861 111.14 117.844 111.055 117.826L111.046 117.825C110.93 117.801 110.809 117.777 110.574 117.763C110.365 117.75 110.261 117.749 110.156 117.748C110.053 117.747 109.95 117.746 109.747 117.734C109.573 117.723 109.486 117.707 109.399 117.689C109.28 117.666 109.161 117.643 108.921 117.628C108.687 117.616 108.569 117.621 108.452 117.627C108.442 117.628 108.432 117.628 108.422 117.628C108.341 117.632 108.252 117.635 108.093 117.627C107.879 117.614 107.764 117.618 107.656 117.622C107.647 117.623 107.638 117.623 107.629 117.623C107.538 117.627 107.447 117.632 107.267 117.621C107.106 117.611 107.019 117.595 106.939 117.581C106.933 117.579 106.926 117.578 106.92 117.577C106.802 117.553 106.683 117.531 106.445 117.516L105.618 117.458C105.45 117.449 105.363 117.432 105.279 117.416L105.267 117.414C105.26 117.412 105.253 117.411 105.247 117.41C105.137 117.39 105.02 117.369 104.796 117.356C104.527 117.335 104.367 117.374 104.25 117.404L104.239 117.406C104.153 117.425 104.101 117.434 103.967 117.431C103.834 117.423 103.787 117.405 103.701 117.373C103.586 117.329 103.429 117.27 103.147 117.252C102.913 117.236 102.789 117.249 102.67 117.261L102.654 117.263C102.569 117.271 102.484 117.279 102.317 117.271C102.103 117.258 101.99 117.26 101.881 117.262L101.863 117.263C101.846 117.263 101.829 117.263 101.812 117.263C101.733 117.264 101.642 117.264 101.489 117.255C101.321 117.245 101.237 117.228 101.153 117.21L101.151 117.209L101.139 117.207C101.022 117.183 100.903 117.158 100.668 117.144C100.484 117.133 100.393 117.118 100.303 117.104C100.293 117.102 100.283 117.101 100.273 117.099C100.167 117.084 100.054 117.067 99.8443 117.055C99.5582 117.036 99.3887 117.087 99.2648 117.125L99.2556 117.128C99.1707 117.152 99.1278 117.162 99.0083 117.159L98.1828 117.103C98.0239 117.092 97.9453 117.072 97.8664 117.053L97.8643 117.052C97.7397 117.02 97.615 116.987 97.3625 116.973C97.1341 116.959 97.0189 116.962 96.9037 116.967C96.8115 116.971 96.7193 116.973 96.536 116.963C96.3627 116.952 96.2718 116.938 96.1859 116.925L96.1724 116.923L96.1583 116.921C96.0486 116.904 95.9346 116.886 95.7146 116.874C95.5414 116.863 95.4452 116.853 95.3583 116.845C95.3474 116.844 95.3367 116.843 95.326 116.842C95.3162 116.841 95.3064 116.84 95.2965 116.839C95.1967 116.828 95.0895 116.816 94.8912 116.805C94.6987 116.794 94.6023 116.783 94.506 116.773L94.5025 116.773C94.3946 116.76 94.2857 116.748 94.0667 116.736C93.9024 116.726 93.8097 116.714 93.7266 116.704C93.7148 116.702 93.7032 116.701 93.6917 116.699C93.5796 116.683 93.4675 116.668 93.2422 116.655C92.9709 116.641 92.8201 116.671 92.6985 116.696C92.6923 116.697 92.6862 116.698 92.6802 116.7C92.5995 116.716 92.5431 116.727 92.4104 116.717C92.1773 116.703 92.06 116.71 91.9419 116.716L91.9411 116.716C91.9353 116.716 91.9295 116.716 91.9237 116.717C91.8392 116.72 91.7504 116.723 91.5828 116.715C91.445 116.708 91.3877 116.689 91.3063 116.662L91.3 116.659L91.2995 116.659C91.1823 116.621 91.0367 116.572 90.7667 116.556C90.5029 116.538 90.3536 116.568 90.2351 116.592L90.2293 116.593C90.2236 116.595 90.218 116.596 90.2124 116.597C90.1323 116.613 90.0723 116.625 89.937 116.614C89.7495 116.603 89.6573 116.59 89.5651 116.578C89.453 116.561 89.3409 116.545 89.1178 116.533C88.8517 116.506 88.6202 116.72 88.6034 116.988C88.5877 117.257 88.792 117.487 89.0602 117.502C89.2323 117.512 89.3241 117.525 89.4105 117.537C89.4167 117.538 89.4228 117.539 89.4289 117.539L89.447 117.542C89.5543 117.557 89.6662 117.572 89.8804 117.583C90.1476 117.599 90.2974 117.57 90.4179 117.546C90.5069 117.528 90.5656 117.517 90.7091 117.526C90.8505 117.534 90.9071 117.553 90.992 117.582C91.1093 117.621 91.256 117.669 91.5252 117.685C91.7583 117.699 91.8757 117.692 91.9938 117.686L91.9945 117.686C92.0836 117.682 92.1737 117.678 92.3507 117.687C92.6172 117.702 92.7684 117.673 92.8896 117.649L92.8976 117.647C92.9845 117.627 93.0432 117.617 93.1846 117.625C93.3619 117.635 93.4559 117.648 93.5444 117.66L93.5597 117.662C93.5662 117.663 93.5727 117.664 93.5793 117.665C93.6852 117.678 93.797 117.693 94.0091 117.706C94.2016 117.717 94.298 117.728 94.3943 117.738L94.3978 117.738C94.5057 117.751 94.6146 117.763 94.8336 117.775C95.0028 117.786 95.0977 117.795 95.1835 117.804C95.1966 117.805 95.2094 117.806 95.2222 117.808C95.232 117.809 95.2418 117.81 95.2517 117.811C95.3515 117.821 95.4587 117.833 95.657 117.844C95.8393 117.855 95.9304 117.869 96.0205 117.884C96.0303 117.885 96.0401 117.887 96.0499 117.888C96.1551 117.904 96.2686 117.921 96.4783 117.933C96.6953 117.945 96.8101 117.942 96.9199 117.939C96.9257 117.939 96.9314 117.939 96.9372 117.939C97.0294 117.933 97.1216 117.932 97.3049 117.943C97.4638 117.953 97.5424 117.973 97.6213 117.992L97.6234 117.993C97.6282 117.994 97.633 117.995 97.6378 117.997C97.7579 118.027 97.8825 118.058 98.1252 118.072L98.9507 118.129C99.2372 118.149 99.4056 118.098 99.5293 118.06L99.5395 118.057C99.6243 118.031 99.6673 118.02 99.7867 118.024C99.9594 118.035 100.05 118.049 100.136 118.062C100.142 118.063 100.147 118.063 100.152 118.064L100.167 118.066C100.276 118.084 100.39 118.101 100.61 118.113C100.768 118.123 100.853 118.14 100.931 118.156C100.937 118.157 100.943 118.158 100.949 118.16C101.069 118.186 101.189 118.211 101.431 118.226C101.658 118.238 101.772 118.236 101.885 118.234C101.892 118.234 101.899 118.234 101.906 118.234C101.993 118.233 102.087 118.232 102.259 118.24C102.482 118.254 102.604 118.244 102.718 118.234C102.73 118.233 102.742 118.232 102.754 118.231L102.764 118.23C102.845 118.222 102.929 118.213 103.089 118.222C103.222 118.231 103.269 118.249 103.356 118.282L103.357 118.282C103.471 118.325 103.629 118.385 103.909 118.402C104.187 118.416 104.348 118.38 104.466 118.351L104.469 118.351C104.554 118.331 104.606 118.319 104.738 118.326C104.905 118.336 104.992 118.352 105.075 118.367L105.087 118.369C105.205 118.392 105.322 118.413 105.56 118.428L106.388 118.486C106.562 118.497 106.648 118.514 106.733 118.53C106.852 118.553 106.97 118.577 107.209 118.59C107.422 118.604 107.537 118.599 107.645 118.595C107.654 118.595 107.663 118.595 107.672 118.594C107.763 118.591 107.854 118.588 108.035 118.596C108.269 118.611 108.387 118.605 108.504 118.597C108.594 118.593 108.684 118.589 108.863 118.599C109.03 118.608 109.116 118.625 109.2 118.641L109.213 118.644C109.331 118.667 109.449 118.69 109.689 118.704C109.901 118.717 110.004 118.718 110.11 118.719C110.211 118.72 110.315 118.721 110.516 118.733C110.681 118.743 110.766 118.759 110.848 118.775L110.86 118.778C110.979 118.803 111.099 118.827 111.34 118.842C111.549 118.853 111.656 118.857 111.761 118.86C111.777 118.861 111.793 118.862 111.809 118.862C111.897 118.866 111.996 118.87 112.171 118.88C112.355 118.892 112.447 118.905 112.539 118.919C112.654 118.937 112.768 118.954 112.995 118.967C113.221 118.982 113.335 118.983 113.448 118.979C113.542 118.978 113.637 118.978 113.826 118.987C114.019 118.999 114.115 119.01 114.211 119.022L114.211 119.022C114.32 119.034 114.43 119.047 114.651 119.061C114.847 119.072 114.956 119.074 115.055 119.076C115.066 119.076 115.077 119.076 115.088 119.076C115.187 119.077 115.286 119.079 115.483 119.091C115.708 119.105 115.823 119.103 115.936 119.1C116.031 119.097 116.126 119.095 116.317 119.108L117.151 119.153C117.295 119.16 117.392 119.161 117.473 119.163C117.519 119.163 117.559 119.164 117.599 119.165C117.697 119.164 117.793 119.164 117.987 119.176Z" fill="#B2BAC4"/>
<path fill-rule="evenodd" clip-rule="evenodd" d="M144.12 86.9441C144.12 86.9441 133.733 147.492 125.007 144.919C125.007 144.919 126.472 147.05 130.686 146.866C133.922 146.724 134.13 143.194 134.13 143.194L144.12 86.9441Z" fill="#E8E9EB"/>
<path fill-rule="evenodd" clip-rule="evenodd" d="M120.791 80.0767C127.681 80.8782 134.48 81.6691 141.278 82.4601C141.294 82.4391 141.31 82.4192 141.326 82.3983C141.291 82.3586 141.256 82.318 141.221 82.2775C141.141 82.1853 141.062 82.0932 140.972 82.0117C139.808 80.9557 139.065 79.6786 138.808 78.1114C138.642 77.0984 138.647 76.0895 138.735 75.0765C138.757 74.8218 138.782 74.5673 138.807 74.3127C138.919 73.167 139.032 72.0211 138.879 70.8682C138.533 68.2502 137.213 66.3959 134.638 65.5662C134.335 65.4677 134.252 65.3095 134.199 65.0371C134.08 64.4138 133.691 64.0597 133.103 63.9937C132.49 63.9256 131.982 64.1802 131.754 64.7501C131.624 65.0748 131.429 65.1607 131.111 65.1932C129.605 65.3409 128.273 65.9171 127.242 67.0318C126.248 68.1056 125.714 69.4308 125.455 70.8587C125.355 71.4097 125.275 71.9638 125.194 72.5178C125.101 73.1574 125.009 73.7968 124.886 74.4311C124.487 76.496 123.617 78.278 121.715 79.3968C121.513 79.5155 121.327 79.6615 121.121 79.8232C121.017 79.9043 120.909 79.9893 120.791 80.0767ZM132.845 84.3254C133.258 83.9817 133.588 83.569 133.71 83.0064C133.676 82.9961 133.646 82.9856 133.618 82.9758C133.56 82.9557 133.51 82.9387 133.461 82.9331C132.228 82.7904 130.995 82.6494 129.762 82.5084C129.32 82.4579 128.879 82.4074 128.437 82.3569C128.2 82.3297 128.119 82.3925 128.171 82.6555C128.601 84.8052 131.159 85.7271 132.845 84.3254Z" fill="#FF97B8"/>
<path fill-rule="evenodd" clip-rule="evenodd" d="M134.722 91.6538C130.403 89.8951 126.488 95.0515 130.764 97.1703C126.758 96.3041 127.706 102.425 130.484 103.077C127.844 102.576 126.833 105.005 128.1 107.325C128.669 108.366 129.623 109.147 130.722 109.594C136.094 111.779 139.236 111.58 144.169 110.436C148.059 109.534 150.898 105.742 151.033 101.614C150.553 97.6036 149.489 94.3246 146.432 93.805C144.911 93.6435 144.036 93.4006 143.678 93.2829C142.407 91.3691 139.457 87.4118 137.207 88.0937C134.501 88.9125 134.675 91.2699 134.722 91.6538ZM132.152 97.6686C131.617 97.5331 131.156 97.3645 130.764 97.1703C131.174 97.2589 131.635 97.4206 132.152 97.6686Z" fill="#D7E1EE"/>
<path fill-rule="evenodd" clip-rule="evenodd" d="M135.561 99.6938C134.579 99.7462 133.629 99.5167 132.735 99.1396C132.293 98.9395 131.859 98.7059 131.478 98.3853C131.094 98.0773 130.751 97.6792 130.588 97.2109C130.972 97.5179 131.377 97.719 131.776 97.9317C132.18 98.1349 132.592 98.3246 133.014 98.5016C133.85 98.8798 134.709 99.214 135.561 99.6938Z" fill="#B2BAC4"/>
<path fill-rule="evenodd" clip-rule="evenodd" d="M136.51 94.8731C135.825 94.6394 135.294 94.1387 134.924 93.5258C134.752 93.2094 134.612 92.8648 134.579 92.4939C134.54 92.1241 134.624 91.7386 134.821 91.439C134.969 92.1419 135.212 92.6364 135.526 93.178C135.829 93.7165 136.19 94.2319 136.51 94.8731Z" fill="#B2BAC4"/>
<path fill-rule="evenodd" clip-rule="evenodd" d="M135.846 105.624C134.805 105.759 133.762 105.517 132.813 105.096C131.872 104.666 130.997 103.991 130.484 103.078C131.387 103.596 132.207 104.07 133.102 104.464C133.985 104.877 134.891 105.217 135.846 105.624Z" fill="#B2BAC4"/>
<path fill-rule="evenodd" clip-rule="evenodd" d="M40.3949 82.5338C35.7895 79.1007 39.4091 71.8931 45.2422 75.5147L40.3949 82.5338Z" fill="#D7E1EE"/>
<path fill-rule="evenodd" clip-rule="evenodd" d="M40.3952 82.5337C39.4105 81.8841 38.6164 80.8878 38.3 79.7061C37.9794 78.537 38.1428 77.2128 38.8144 76.1725C39.4838 75.1354 40.6655 74.4324 41.8933 74.4031C43.1243 74.357 44.2714 74.8598 45.2426 75.5146C44.1876 74.9971 43.052 74.5979 41.9132 74.7027C40.7828 74.7917 39.7352 75.4245 39.1433 76.382C38.5032 77.3165 38.3513 78.5307 38.5912 79.6349C38.828 80.7548 39.5089 81.7553 40.3952 82.5337Z" fill="#B2BAC4"/>
<path fill-rule="evenodd" clip-rule="evenodd" d="M41.0843 66.3386C43.4572 71.5704 36.8048 76.1318 33.4482 70.1404L41.0843 66.3386Z" fill="#D7E1EE"/>
<path fill-rule="evenodd" clip-rule="evenodd" d="M41.0843 66.3386C41.6312 67.3831 41.846 68.6392 41.5516 69.8261C41.2666 71.0058 40.4841 72.0848 39.3935 72.6725C38.3071 73.2561 36.9316 73.3011 35.8431 72.7333C34.7431 72.177 33.9825 71.1839 33.4482 70.1415C34.1219 71.1032 34.9233 72.001 35.9709 72.4609C37.0028 72.9281 38.2254 72.881 39.207 72.3289C40.218 71.8208 40.9377 70.8308 41.2624 69.7486C41.5956 68.6528 41.4835 67.4491 41.0843 66.3386Z" fill="#B2BAC4"/>
<path fill-rule="evenodd" clip-rule="evenodd" d="M32.6412 70.429C35.014 75.6608 28.8771 80.0576 25.5205 74.0673L32.6412 70.429Z" fill="#D7E1EE"/>
<path fill-rule="evenodd" clip-rule="evenodd" d="M32.6412 70.429C33.1702 71.4441 33.4175 72.6436 33.1975 73.8096C32.9827 74.962 32.2923 76.0725 31.2342 76.6686C30.1772 77.2605 28.8163 77.25 27.7886 76.6476C26.7473 76.0578 26.0401 75.0793 25.5205 74.0684C26.1795 74.9987 26.9306 75.8891 27.9279 76.3805C28.9085 76.8812 30.1017 76.8802 31.0415 76.3302C32.0095 75.82 32.6443 74.8091 32.9041 73.7457C33.1702 72.6667 33.0225 71.508 32.6412 70.429Z" fill="#B2BAC4"/>
</svg>
