<svg xmlns:xlink="http://www.w3.org/1999/xlink" xmlns="http://www.w3.org/2000/svg" width="172" height="172" viewBox="0 0 172 172">
  <defs>
    <linearGradient id="img_visit_me-a" x1="18.353%" x2="82.667%" y1="50.013%" y2="50.013%">
      <stop offset="21%" stop-color="#FFF"/>
      <stop offset="91%" stop-color="#FFF"/>
    </linearGradient>
    <linearGradient id="img_visit_me-b" x1="-12.323%" x2="104.686%" y1="49.659%" y2="51.244%">
      <stop offset="21%" stop-color="#FFF"/>
      <stop offset="37%" stop-color="#CAD8FB"/>
      <stop offset="72%" stop-color="#4778F1"/>
      <stop offset="91%" stop-color="#0044EC"/>
    </linearGradient>
  </defs>
  <g fill="none" fill-rule="evenodd">
    <g fill-rule="nonzero" transform="translate(55.377 27.334)">
      <path fill="#D7E1EE" d="M40.5429762,0.196255971 C42.2623963,-0.876186763 44.2345311,2.62223749 46.5808465,6.41783204 L46.9447866,7.00353783 C48.0455615,8.76423062 49.2273705,10.5415401 50.5021555,11.9152941 L50.562,11.978 L55.4979522,12.084176 C55.4979522,12.084176 57.9767682,1.86247997 65.7771042,5.16756797 C73.7174322,8.53079597 68.1373412,17.634627 67.1521848,19.1285764 L67.0681685,19.2543053 C67.0311905,19.3088268 67.0110402,19.337312 67.0110402,19.337312 L67.8147208,23.5971734 C67.9998089,24.210099 68.1584513,24.8614195 68.2860162,25.553504 C68.2860162,25.553504 70.2700015,31.2359374 71.9796352,37.2102887 L72.1755546,37.9006258 C72.9209266,40.5495324 73.5956328,43.214988 74.0042562,45.430544 C74.0042562,45.430544 75.8373762,54.4484 76.8414882,56.968256 C77.8066439,59.387295 79.0733565,62.0398912 80.4785689,64.7680966 C94.0997781,86.1137726 101.350576,104.621168 101.350576,104.621168 C101.350576,104.621168 103.695328,110.71424 104.272624,114.651344 L104.272624,114.651344 L104.513392,115.989248 C104.876843,117.528898 105.150901,119.088288 105.334192,120.6596 L105.334192,120.6596 L92.754,120.659 L92.7458562,120.67328 L5.67265616,120.67328 C2.57824016,115.00976 1.96264016,110.38592 1.96264016,110.38592 C-2.86065424,83.7601256 2.51020268,62.7443761 4.22998388,57.0387316 L4.3978255,56.4922452 C4.60179889,55.8410196 4.72326416,55.50176 4.72326416,55.50176 L4.72326416,55.50176 L7.29510416,49.233584 C7.99029689,47.0660087 9.9191071,41.5103727 11.8787564,35.918762 L12.152275,35.1386411 C14.613565,28.1215226 17.0352642,21.293552 17.0352642,21.293552 L17.0352642,21.293552 L17.0981922,21.0692 C17.3204717,20.2603679 17.6090477,19.4729374 17.960525,18.7179132 L19.0571682,15.334544 C19.1866691,15.044342 19.2013346,14.7158351 19.0982082,14.415248 C18.4169442,12.475424 16.2062562,4.89123197 22.6139682,3.55879997 C28.6633063,2.30352317 28.9624207,9.8279169 28.9771451,10.5251503 L28.9779042,10.57664 L28.9779042,10.57664 L33.8215877,10.7725498 C33.3733112,8.40647628 33.1791665,6.06871683 34.1270562,5.95006397 C36.0723522,5.70655997 39.1394082,8.61492797 39.1394082,8.61492797 C39.1394082,8.61492797 38.7946722,1.29065597 40.5429762,0.196255971 Z"/>
      <path fill="#FFF" d="M36.1051842,28.453664 L36.1051842,28.453664 C44.0149602,30.122624 46.4527362,36.615152 46.6606722,41.025584 L46.8631362,43.266368 C46.6716162,48.836864 44.3706402,53.575616 39.2515842,53.389568 L31.2515202,53.115968 C26.1324642,52.938128 22.0996002,48.23768 22.2911202,42.667184 L22.2911202,42.771152 C22.4799042,37.2116 26.1789762,28.111664 36.1051842,28.453664 Z"/>
      <path fill="#262626" d="M32.226885,36.5419494 C32.7448058,36.6726448 33.0587141,37.198452 32.9280187,37.7163728 L32.9005312,37.8416282 L32.8644655,38.0421216 C32.8580061,38.0814673 32.851389,38.123693 32.8447141,38.1686715 C32.6832458,39.2567226 32.7121117,40.4394432 33.0510757,41.5356036 C34.8565138,41.5705173 36.376394,42.3422819 37.5981502,43.596349 C38.3329181,44.3505487 38.808784,45.1041015 39.0549639,45.6391276 C39.2782418,46.1243803 39.0658693,46.6987579 38.5806166,46.9220358 C38.0953638,47.1453136 37.5209863,46.9329411 37.2977084,46.4476884 L37.2471661,46.347239 L37.1635428,46.1979208 L37.0468108,46.0060296 C36.8186745,45.6447665 36.5400797,45.2822923 36.2126244,44.946177 C35.2015098,43.9083223 33.9727081,43.3523467 32.4725067,43.4855613 C31.1047561,43.6070145 30.1376359,44.2639193 29.4558404,45.3195454 C29.1813018,45.7446143 28.9734959,46.2062838 28.8258921,46.6680963 L28.7857458,46.7983264 L28.7248191,47.0201769 L28.6878391,47.1836164 C28.6835463,47.2055266 28.6801576,47.2246565 28.6776262,47.2408327 C28.5950393,47.7685662 28.1002769,48.1294288 27.5725434,48.046842 C27.0448099,47.9642551 26.6839473,47.4694927 26.7665341,46.9417592 C26.8754806,46.2455867 27.1894365,45.2633035 27.8309345,44.2700701 C28.6109322,43.0623973 29.6985452,42.1814416 31.109258,41.7771716 C30.7619837,40.471267 30.746227,39.1319438 30.9313168,37.8847205 L30.957362,37.7185601 L31.0079829,37.441605 L31.0524616,37.2430831 C31.1831569,36.7251623 31.7089642,36.4112541 32.226885,36.5419494 Z"/>
      <path fill="#FF004B" d="M65.0318488,8.12654733 L65.2089824,8.13137013 C65.8602992,8.17579174 66.4568049,8.5117129 66.8269639,9.03811613 C67.1807877,9.50318356 67.4287467,10.03993 67.555924,10.623462 C67.7102929,11.5583157 67.6428386,12.5163622 67.3607563,13.4145182 C67.1300833,14.2172449 66.4582784,14.8157217 65.6343405,14.9524941 C64.8104026,15.0892664 63.9812645,14.7399438 63.5109153,14.0647485 C62.8711779,13.2373945 62.5108816,12.2281611 62.4820515,11.1682323 C62.5088553,10.2859629 62.8649256,9.44567899 63.4764029,8.81673786 C63.9210743,8.33876907 64.5576656,8.08694852 65.2089824,8.13137013 Z M21.1080398,6.37810134 C21.4949794,6.03711315 22.016145,5.8908961 22.5239877,5.98084611 C23.0318305,6.07079611 23.4710696,6.38712174 23.7169488,6.83953018 C24.0203328,7.39330106 24.1127752,8.03824807 23.9747024,8.66509276 C23.7958291,9.34228983 23.4197144,9.95104221 22.9017774,10.4070048 C22.4061868,10.8815296 21.6753378,11.0147219 21.0442105,10.7455339 C20.4130831,10.4763459 20.0033463,9.85667169 20.0028564,9.17563675 C19.9895833,8.54978017 20.1124497,7.92851214 20.3664169,7.34723808 C20.5439566,6.97501042 20.7974894,6.64409408 21.1080398,6.37810134 Z"/>
    </g>
    <g fill-rule="nonzero" transform="translate(111.037 85.832)">
      <path fill="#D7E1EE" d="M48.854016,57.491568 C48.736368,56.8404 48.610512,56.189232 48.503808,55.538064 C48.397104,54.886896 48.230208,54.2412 48.076992,53.600976 C47.751408,52.317792 47.371104,51.051024 46.960704,49.792464 C46.550304,48.533904 46.112544,47.286288 45.639216,46.052352 C45.165888,44.818416 44.61048,43.614576 44.079696,42.402528 C43.00992,39.983904 41.890896,37.589904 40.733568,35.206848 C39.57624,32.823792 38.364192,30.476304 37.12752,28.13976 C34.652352,23.472144 32.049504,18.870192 29.318976,14.333904 C26.588448,9.797616 23.718384,5.363472 20.708784,1.031472 L21.42288,1.212048 L11.335248,6.549984 L1.225728,11.835936 L1.515744,10.93032 C3.548592,14.872896 5.534928,18.83736 7.534944,22.788144 L13.507632,34.676064 L25.329888,58.514832 L25.450272,58.758336 L25.217712,58.884192 C24.4323049,59.3003532 23.688391,59.7904936 22.99608,60.347952 C22.3045457,60.8927883 21.705818,61.5460297 21.223152,62.282304 L21.03984,61.95672 L28.19448,62.0388 L35.34912,62.096256 L42.506496,62.142768 L49.661136,62.159184 L49.661136,62.159184 C49.4817773,60.5891288 49.2122926,59.0306849 48.854016,57.491568 Z M48.854016,57.491568 C49.2177044,59.0357793 49.4917621,60.5997355 49.674816,62.1756 L49.674816,62.1756 L49.661136,62.1756 L42.506496,62.194752 L35.34912,62.238528 L28.19448,62.29872 L21.03984,62.3808 L20.6568,62.3808 L20.856528,62.049744 C21.3580788,61.2670557 21.9836823,60.5712219 22.7088,59.989536 C23.4137107,59.3957967 24.173132,58.869973 24.976944,58.419072 L24.864768,58.785696 L12.50352,35.220528 L6.37488,23.3928 C4.355712,19.444752 2.31192,15.507648 0.31464,11.548656 L-1.42108547e-13,10.949472 L0.593712,10.64304 L10.736064,5.411808 L20.900304,0.227088 L21.346272,-3.55271368e-15 L21.619872,0.4104 C24.527328,4.844544 27.307104,9.358944 29.9592,13.9536 C32.604912,18.547344 35.094672,23.225904 37.466784,27.96192 C38.654208,30.32856 39.79512,32.719824 40.91688,35.11656 C42.03864,37.513296 43.130304,39.926448 44.169984,42.361488 C44.684352,43.581744 45.195984,44.802 45.685728,46.0332 C46.175472,47.2644 46.583136,48.52296 46.9908,49.78152 C47.398464,51.04008 47.77056,52.31232 48.0852,53.595504 C48.243888,54.238464 48.38616,54.88416 48.501072,55.535328 C48.615984,56.186496 48.739104,56.8404 48.854016,57.491568 Z"/>
      <path fill="#B2BAC4" d="M5.441904,17.532288 C5.36609333,17.4441694 5.28378263,17.3618587 5.195664,17.286048 C5.15392679,17.2481591 5.1080346,17.2151167 5.058864,17.187552 C5.00688,17.160192 4.96584,17.157456 4.960368,17.187552 C4.94770125,17.2944702 4.95891471,17.4028669 4.9932,17.504928 C5.023296,17.614368 5.058864,17.723808 5.097168,17.833248 C5.255856,18.265536 5.441904,18.692352 5.630688,19.116432 C6.016464,19.95912 6.424128,20.796336 6.834528,21.630816 C7.655328,23.294304 8.50896,24.955056 9.368064,26.604864 L11.937168,31.565232 L14.481648,36.53928 L19.565136,46.495584 C21.236832,49.828032 22.911264,53.168688 24.470784,56.561328 L24.43248,56.492928 C24.881184,57.259008 25.346304,58.011408 25.778592,58.788432 L25.808688,58.840416 C25.8761587,58.9611591 25.8927284,59.1038126 25.8547302,59.2368064 C25.816732,59.3698001 25.7272992,59.4821672 25.606224,59.54904 C25.5594729,59.5761445 25.5086627,59.5955448 25.455744,59.606496 C25.0614842,59.6919518 24.6730919,59.8025294 24.292944,59.937552 C23.9012764,60.0679544 23.5183644,60.2233125 23.14656,60.402672 C22.7668738,60.5760196 22.4010062,60.7781615 22.05216,61.007328 C21.6946002,61.2401948 21.3601902,61.5068066 21.05352,61.803504 C21.1518555,61.6076146 21.26148,61.417599 21.38184,61.234416 C21.5093737,61.0524135 21.6473155,60.8779308 21.794976,60.71184 C22.0957724,60.3810071 22.427416,60.0795963 22.785408,59.811696 C23.1482117,59.5473748 23.5284708,59.3078847 23.923584,59.094864 C24.3272908,58.881971 24.746118,58.699077 25.176672,58.547664 L24.853824,59.368464 C24.339456,58.64616 23.860656,57.901968 23.359968,57.179664 L23.335344,57.138624 L23.335344,57.114 L20.872944,52.104384 C20.044848,50.440896 19.204896,48.780144 18.353088,47.122128 C16.684128,43.792416 14.990544,40.470912 13.354416,37.119312 L10.892016,32.09328 C10.096752,30.40608 9.312432,28.712496 8.539056,27.012528 C7.78392,25.305264 7.026048,23.598 6.33384,21.863376 C5.983632,20.996064 5.647104,20.12328 5.343408,19.236816 C5.192928,18.793584 5.045184,18.347616 4.93848,17.887968 C4.91112,17.773056 4.886496,17.658144 4.87008,17.53776 C4.83745623,17.4158732 4.83745623,17.2875508 4.87008,17.165664 C4.8905841,17.1262343 4.93243278,17.1026273 4.976784,17.1052409 C5.01114392,17.1110011 5.04384951,17.1240833 5.072544,17.143776 C5.12151438,17.1788626 5.1664732,17.2192338 5.206608,17.26416 C5.29103809,17.3480888 5.36965212,17.4376722 5.441904,17.532288 L5.441904,17.532288 Z"/>
    </g>
    <path fill="#262626" fill-rule="nonzero" stroke="#262626" stroke-linecap="round" stroke-linejoin="round" stroke-width="1.822" d="M85.02264,59.9982515 L89.829792,60.1651475 C90.4858724,60.1880231 91.0590511,60.6152103 91.2684734,61.2373895 C91.4778958,61.8595688 91.27969,62.5464001 90.770976,62.9613395 L88.294896,64.9777715 C87.6827266,65.4731942 86.7990622,65.4416764 86.223744,64.9038995 L83.892672,62.7150995 C83.420097,62.2652901 83.2735483,61.5707938 83.5240925,60.9683958 C83.7746367,60.3659979 84.3704651,59.9802647 85.02264,59.9982515 L85.02264,59.9982515 Z"/>
    <ellipse cx="79.821" cy="56.97" fill="#262626" fill-rule="nonzero" stroke="#262626" stroke-width=".5" rx="2.646" ry="2.484" transform="rotate(-66.76 79.821 56.97)"/>
    <circle cx="102.045" cy="58.495" r="2.986" fill="#262626" fill-rule="nonzero" stroke="#262626" stroke-width=".5" transform="rotate(-82.519 102.045 58.495)"/>
    <path fill="#FF004B" fill-rule="nonzero" d="M62.376768,77.2706195 C62.376768,77.2706195 74.76264,89.5826195 82.661472,90.7508915 C100.415376,93.3637715 129.001104,70.8902675 129.001104,70.8902675 L130.284288,76.9696595 C130.284288,76.9696595 114.002352,117.9139 81.214128,111.861868 C67.0608,109.248988 59.711904,92.5101395 59.186592,89.1831635 C59.049792,88.3021715 58.86648,86.8219955 59.203008,85.9957235 L62.376768,77.2706195 Z"/>
    <path fill="#D7E1EE" fill-rule="nonzero" d="M59.545008,85.0299155 C55.441008,78.0777395 56.778912,79.4566835 64.10592,69.3225395 L72.58752,56.9886515 C74.453472,55.8477395 79.81056,49.7929715 75.148416,47.3770835 C75.359088,44.9967635 70.814592,44.7094835 69.09912,46.0090835 C68.5246146,46.4583746 67.8461916,46.7557139 67.126464,46.8736595 C65.549341,47.1373716 64.0334656,47.686239 62.653104,48.4933715 C56.508048,52.1678195 45.068832,59.6562515 39.254832,67.3334675 C25.848432,85.0271795 47.2248,107.361148 55.536768,111.768844 C55.536768,111.768844 57.339792,97.5772115 58.034736,94.3459955 C58.72968,91.1147795 59.545008,85.0299155 59.545008,85.0299155 Z"/>
    <path fill="#B2BAC4" fill-rule="nonzero" d="M76.41792,51.6342995 C76.2704147,52.1147731 76.0030075,52.5497804 75.640896,52.8983315 C75.2751363,53.2551867 74.8377601,53.5302955 74.357712,53.7054515 C73.8739665,53.8851782 73.3550203,53.9498123 72.841968,53.8942355 C72.3333978,53.8468174 71.8536673,53.6366955 71.473968,53.2950515 C71.9265292,53.3662272 72.3865134,53.3772668 72.841968,53.3278835 C73.2729109,53.2798349 73.6964353,53.1796957 74.103264,53.0296595 C74.5142653,52.8794036 74.9085422,52.6868498 75.279744,52.4550995 C75.6778182,52.2083846 76.0581392,51.9341146 76.41792,51.6342995 Z"/>
    <path fill="#D7E1EE" fill-rule="nonzero" d="M67.244112,52.4633075 C69.200352,50.9530355 71.977392,50.7423635 73.44936,51.9899795 C74.921328,53.2375955 74.54376,55.4783795 72.576576,56.9886515"/>
    <path fill="#B2BAC4" fill-rule="nonzero" d="M67.244112 52.4633075C68.0332359 51.735142 69.0086746 51.2398465 70.062192 51.0323795 70.602151 50.9219722 71.1560988 50.8970445 71.703792 50.9585075 72.2608333 51.0179449 72.7984325 51.1971447 73.279728 51.4838195 73.7907926 51.7837955 74.1961331 52.2350237 74.439792 52.7752115 74.6758372 53.3213791 74.738858 53.9267605 74.620368 54.5098355 74.3544236 55.61518 73.6912612 56.5841178 72.757152 57.2321555L72.811872 57.1774355C72.456192 57.6179315 72.097776 58.0529555 71.733888 58.4879795 71.37 58.9230035 71.011584 59.3580275 70.639488 59.7875795 69.90624 60.6494195 69.162048 61.5030515 68.393232 62.3375315 69.014304 61.3881395 69.66 60.4578995 70.308432 59.5386035 70.634016 59.0762195 70.967808 58.6193075 71.3016 58.1706035 71.635392 57.7218995 71.969184 57.2595155 72.311184 56.8026035 72.3234253 56.7867265 72.3371689 56.7720667 72.352224 56.7588275L72.365904 56.7588275C73.123776 56.1377555 73.753056 55.3142195 73.925424 54.3921875 74.0197168 53.945107 73.9777831 53.4800231 73.80504 53.0570195 73.6180634 52.6363084 73.3129624 52.2789315 72.926784 52.0282835 72.0756376 51.5258527 71.0795135 51.3262422 70.100496 51.4619315 69.0852405 51.5769439 68.108941 51.9192098 67.244112 52.4633075zM59.545008 85.0299155C59.487552 86.3185715 59.342544 87.5908115 59.161968 88.8603155 58.981392 90.1298195 58.754304 91.3883795 58.505328 92.6442035 58.374 93.2680115 58.231728 93.8945555 58.097664 94.5183635 57.9636 95.1421715 57.804912 95.7632435 57.632544 96.3815795 57.304224 97.6182515 56.934864 98.8439795 56.488896 100.053292 56.62296 98.7728435 56.825424 97.5115475 57.036096 96.2502515 57.140064 95.6209715 57.263184 94.9944275 57.37536 94.3678835L57.74472 92.4882515C58.01832 91.2406355 58.267296 89.9930195 58.56552 88.7508755 58.863744 87.5087315 59.172912 86.2638515 59.545008 85.0299155z"/>
    <path fill="#0053EC" fill-rule="nonzero" d="M87.474096,66.5783315 C87.698448,66.4634195 100.243008,64.8683315 105.28272,64.2308435 C106.778807,64.0517438 108.063646,63.0834144 108.648,61.6945715 C109.871895,58.6787906 109.83444,55.2980172 108.544032,52.3100915 C107.98887,50.9910765 106.805533,50.04132 105.397632,49.7847635 C100.472832,48.8846195 88.133472,46.6055315 87.66288,46.3155155 C86.601312,46.1239955 85.61088,46.8353555 85.599936,47.7902195 C86.469984,49.2129395 83.493216,67.6344275 87.474096,66.5783315 Z"/>
    <polygon fill="#0053EC" fill-rule="nonzero" points="65.482 46.187 87.132 48.688 86.982 63.935 65.893 64.816"/>
    <path fill="#0079FF" fill-rule="nonzero" d="M73.389168,55.6233875 C73.334448,61.0598195 69.588864,65.4319475 65.02248,65.3854355 C60.456096,65.3389235 56.658528,61.7246675 56.658528,55.4537555 C56.658528,49.6780595 60.653088,45.6479315 65.219472,45.6944435 C69.785856,45.7409555 73.443888,50.1842195 73.389168,55.6233875 Z"/>
    <ellipse cx="64.304" cy="55.624" fill="#CAE8FF" fill-rule="nonzero" stroke="#CAE8FF" stroke-linecap="round" stroke-linejoin="round" stroke-width=".542" rx="7.625" ry="6.019" transform="rotate(-89.43 64.304 55.624)"/>
    <ellipse cx="86.199" cy="56.316" fill="#0079FF" fill-rule="nonzero" rx="10.112" ry="9.806" transform="rotate(-89.43 86.2 56.316)"/>
    <ellipse cx="84.868" cy="56.318" fill="#CAE8FF" fill-rule="nonzero" stroke="#CAE8FF" stroke-linecap="round" stroke-linejoin="round" stroke-width=".542" rx="7.831" ry="6.835" transform="rotate(-89.427 84.868 56.318)"/>
    <g fill="#81AAEA" fill-rule="nonzero" opacity=".34" transform="translate(57.41 49.788)">
      <polygon points="11.809 .063 .235 9.338 1.77 11.833 13.42 1.956" opacity=".65"/>
      <polygon points="13.527 4.654 1.954 13.929 3.486 16.424 15.136 6.547" opacity=".65"/>
    </g>
    <g fill="#81AAEA" fill-rule="nonzero" opacity=".34" transform="translate(77.93 50.882)">
      <polygon points="12.46 .241 .063 9.726 2.441 12.424 14.069 2.134" opacity=".65"/>
      <polygon points="14.175 4.832 2.933 14.646 5.177 16.402 15.784 6.725" opacity=".65"/>
    </g>
    <path fill="#B2BAC4" fill-rule="nonzero" d="M113.416848,61.4182355 C113.397696,61.1610515 113.79168,61.1938835 113.931216,61.2349235 C114.1743,61.2949967 114.358274,61.4940328 114.399072,61.7410835 C114.413978,62.245805 114.495862,62.7463103 114.642576,63.2294675 C114.675158,63.3233794 114.714476,63.414817 114.760224,63.5030675 C114.787584,63.5523155 114.814944,63.6015635 114.84504,63.6480755 C114.855298,63.6664446 114.867203,63.6838441 114.880608,63.7000595 L114.870304,63.6868323 L114.86695,63.6832495 L114.873304,63.6908323 C114.879185,63.6983085 114.880608,63.7000595 114.880608,63.7000595 L114.910788,63.7366963 C114.943364,63.7758125 114.979788,63.8183915 114.990048,63.8286515 C115.003728,63.8423315 115.088544,63.9271475 115.047504,63.8888435 L115.047504,63.8888435 L115.057764,63.8987615 C115.078284,63.9168875 115.109064,63.9421955 115.129584,63.9517715 C115.170624,63.9709235 115.230816,64.0174355 115.148736,63.9709235 L115.155304,63.9748323 L115.291304,64.0498323 L115.273629,64.0387535 C115.257011,64.0273535 115.290653,64.0433135 115.312947,64.0501535 L115.326576,64.0530035 L115.444224,64.0885715 L115.444224,64.0885715 L115.493472,64.0885715 C115.519852,64.0912602 115.546436,64.0912602 115.572816,64.0885715 L115.572816,64.0885715 L115.6932,64.0885715 C115.70688,64.0858355 115.714541,64.0846317 115.718568,64.0842596 L115.721129,64.0844566 L115.745184,64.0748915 C115.790831,64.0623041 115.835613,64.0467674 115.879248,64.0283795 C115.942351,64.0004781 116.000551,63.9626017 116.051616,63.9162035 C116.099326,63.8775507 116.143295,63.8344971 116.182944,63.7876115 C116.278601,63.6601701 116.352556,63.5178069 116.401824,63.3662675 C116.49189,63.0489632 116.481376,62.7115405 116.371728,62.4004595 C116.289648,62.1569555 116.56872,62.0748755 116.749296,62.0940275 C117.009817,62.1245129 117.233111,62.2943425 117.332064,62.5372595 C117.495597,63.019998 117.475136,63.546119 117.274608,64.0146995 C117.080901,64.4490979 116.682209,64.7573649 116.21304,64.8354995 C115.654002,64.902385 115.090855,64.7493347 114.642576,64.4086835 C114.185169,64.0763778 113.845838,63.6066818 113.674032,63.0680435 C113.51805,62.5341839 113.431608,61.982428 113.416848,61.4264435 L113.416848,61.4264435 Z M118.426464,57.7766195 C118.410048,57.5221715 118.801296,57.5550035 118.940832,57.5960435 C119.183916,57.6561167 119.36789,57.8551528 119.408688,58.1022035 C119.423177,58.6062792 119.506013,59.1060564 119.654928,59.5878515 C119.68424,59.6825726 119.722727,59.7742069 119.76984,59.8614515 C119.7972,59.9134355 119.82456,59.9626835 119.854656,60.0091955 L119.854656,60.0091955 L119.890224,60.0611795 L119.941856,60.1269032 L119.941856,60.1269032 L119.996928,60.1897715 C120.010608,60.2034515 120.095424,60.2827955 120.054384,60.2472275 L120.136464,60.3128915 C120.163824,60.3256595 120.199696,60.3505875 120.197061,60.3520062 L120.193304,60.3508323 L120.30336,60.4113875 C120.24636,60.3771875 120.27866,60.3885875 120.313177,60.4028375 L120.333456,60.4113875 C120.37176,60.4278035 120.410064,60.4360115 120.451104,60.4496915 L120.451104,60.4496915 L120.421008,60.4496915 L120.500352,60.4633715 L120.560544,60.4633715 C120.607014,60.4661714 120.65361,60.4661714 120.70008,60.4633715 C120.71376,60.4606355 120.721421,60.4593222 120.725448,60.4587969 L120.728009,60.458206 L120.752064,60.4496915 L120.886128,60.4031795 C120.949231,60.3752781 121.007431,60.3374017 121.058496,60.2910035 C121.106206,60.2523507 121.150175,60.2092971 121.189824,60.1624115 C121.286097,60.034356 121.360094,59.8909872 121.408704,59.7383315 C121.498732,59.4219474 121.488215,59.0854051 121.378608,58.7752595 C121.296528,58.5290195 121.5756,58.4496755 121.756176,58.4688275 C122.017157,58.4981678 122.240972,58.6683931 122.338944,58.9120595 C122.503871,59.3936649 122.483386,59.91945 122.281488,60.3867635 C122.087904,60.8201289 121.690597,61.1281184 121.222656,61.2075635 C120.662502,61.2723734 120.098946,61.1184982 119.649456,60.7780115 C119.191597,60.4479331 118.852795,59.9786017 118.683648,59.4401075 C118.526799,58.9063562 118.439439,58.3546058 118.423728,57.7985075 L118.423728,57.7985075 Z M112.45104,54.4797395 C112.434624,54.2252915 112.825872,54.2553875 112.968144,54.2991635 C113.210933,54.3588811 113.39424,54.5583623 113.433264,54.8053235 C113.447954,55.3093797 113.530786,55.8091299 113.679504,56.2909715 C113.709355,56.3854957 113.747821,56.47708 113.794416,56.5645715 C113.821776,56.6138195 113.849136,56.6630675 113.879232,56.7123155 L113.879232,56.7123155 L113.9148,56.7642995 L113.967842,56.8286865 L113.967842,56.8286865 L114.02424,56.8901555 L114.02424,56.8901555 L114.092793,56.9593216 L114.092793,56.9593216 L114.16104,57.0132755 C114.20208,57.0324275 114.265008,57.0816755 114.182928,57.0324275 L114.191304,57.0368323 L114.254406,57.0744935 L114.254406,57.0744935 L114.322304,57.1108323 L114.305275,57.1002575 C114.289113,57.0888575 114.323819,57.1048175 114.345353,57.1116575 L114.358032,57.1145075 L114.47568,57.1528115 L114.724656,57.1528115 C114.793056,57.1528115 114.713712,57.1746995 114.779376,57.1528115 L114.779376,57.1528115 L114.91344,57.1035635 C114.974709,57.0749876 115.031782,57.0381664 115.083072,56.9941235 C115.131498,56.9553347 115.176364,56.9122999 115.217136,56.8655315 C115.311549,56.7367321 115.384537,56.5935278 115.43328,56.4414515 C115.524782,56.1252513 115.51425,55.7882495 115.403184,55.4783795 C115.321104,55.2321395 115.600176,55.1527955 115.780752,55.1719475 C116.041966,55.2007062 116.266046,55.3711336 116.36352,55.6151795 C116.527739,56.0966791 116.508251,56.6218782 116.3088,57.0898835 C116.115494,57.524597 115.716605,57.8330165 115.247232,57.9106835 C114.68731,57.9780076 114.123152,57.824949 113.674032,57.4838675 C113.216173,57.1537891 112.877371,56.6844577 112.708224,56.1459635 C112.552862,55.6118786 112.465531,55.0603198 112.448304,54.5043635 L112.448304,54.5043635 Z"/>
    <path fill="#D7E1EE" fill-rule="nonzero" d="M74.921328,46.2306995 C74.921328,46.2306995 76.264704,47.9406995 74.349504,48.5617715 C71.066304,49.6260755 69.460272,46.4140115 69.460272,46.4140115 L74.921328,46.2306995 Z"/>
    <path fill="url(#img_visit_me-a)" fill-rule="nonzero" d="M86.4465304,61.8001127 L86.5319798,61.8086723 C86.6740558,61.8370875 86.7930728,61.9335532 86.850288,62.0666675 C86.9935224,62.3913151 86.9180418,62.7709055 86.661504,63.0160595 C86.3199753,63.2883111 85.8912325,63.4273366 85.454928,63.4073075 C85.107456,63.4182515 84.943296,63.1364435 84.929616,62.8163315 C84.918672,62.5399955 85.115664,62.0611955 85.44672,62.0611955 C85.5988334,62.0593101 85.7506154,62.0465092 85.900896,62.0228915 C85.9881223,62.0138749 86.0708343,61.9796492 86.138928,61.9243955 C86.2013351,61.8638742 86.279205,61.8240886 86.3622042,61.8080813 L86.4465304,61.8001127 Z M65.0265112,60.7091595 L65.1122512,60.7176673 C65.2548316,60.7461833 65.3739478,60.8436339 65.430144,60.9777395 C65.5725396,61.302479 65.497158,61.6815718 65.24136,61.9271315 C64.8991205,62.1980584 64.4708867,62.3369188 64.034784,62.3183795 C63.687312,62.3293235 63.509472,62.0475155 63.509472,61.7274035 C63.498528,61.4510675 63.69552,60.9722675 64.026576,60.9722675 C64.1786894,60.9703821 64.3304714,60.9575812 64.480752,60.9339635 C64.5676762,60.9237694 64.650072,60.8896746 64.718784,60.8354675 C64.8222364,60.7332917 64.9696709,60.6891512 65.1122512,60.7176673 Z M88.831152,50.9721875 C91.542528,53.6972435 91.548,59.1391475 88.459056,61.6015475 C87.90912,62.0338355 86.853024,61.4866355 87.55344,60.9394355 C90.278496,58.7615795 89.955648,53.9270675 87.63552,51.5959955 C87.137568,51.0953075 88.37424,50.5125395 88.831152,50.9721875 Z M66.215376,50.5070675 C65.717424,50.0063795 66.954096,49.4236115 67.411008,49.8832595 C70.122384,52.6083155 70.127856,58.0502195 67.038912,60.5126195 C66.488976,60.9421715 65.43288,60.3949715 66.133296,59.8477715 C68.858352,57.6726515 68.535504,52.8381395 66.215376,50.5070675 Z"/>
    <path fill="url(#img_visit_me-b)" fill-rule="nonzero" d="M92.06784,56.0310515 C92.06784,52.3100915 89.857152,49.2567155 87.036336,48.9174515 C83.260656,47.8969235 80.27568,46.3346675 78.590304,44.9666675 C76.839264,43.5439475 75.033504,42.0747155 71.060832,41.0405075 C67.08816,40.0062995 64.877472,40.4276435 62.729712,40.8325715 C60.581952,41.2374995 58.436928,41.6533715 54.538128,40.6301075 C50.639328,39.6068435 48.858192,38.1677075 47.134512,36.7696115 C45.410832,35.3715155 43.577712,33.8776595 39.60504,32.8434515 C35.632368,31.8092435 33.42168,32.2305875 31.27392,32.6355155 C29.12616,33.0404435 26.9784,33.4563155 23.082336,32.4330515 C19.186272,31.4097875 17.4024,29.9706515 15.67872,28.5725555 C13.95504,27.1744595 12.12192,25.6778675 8.149248,24.6463955 C4.176576,23.6149235 1.963152,24.0307955 -0.184608,24.4384595 C-2.080656,24.7968755 -4.036896,25.1634995 -7.238016,24.5013875 L-8.378928,24.2277875 L-8.458272,24.6162995 L-8.381664,24.6354515 L-8.95896,73.9682675 L-9,73.9682675 L-8.964432,74.3458355 L-8.099856,74.2610195 C-4.666176,73.9874195 -2.7072,74.6440595 -0.813888,75.2815475 C0.803088,75.8287475 2.469312,76.3759475 5.022,76.3759475 C5.84500112,76.3728816 6.66714979,76.3226392 7.4844,76.2254675 C11.536416,75.7494035 13.5036,74.5428275 15.402384,73.3745555 C17.301168,72.2062835 19.20816,71.0380115 23.18904,70.5701555 C27.16992,70.1022995 29.293056,70.8163955 31.34232,71.5086035 C33.391584,72.2008115 35.577648,72.9340595 39.629664,72.4579955 C43.68168,71.9819315 45.648864,70.7753555 47.564064,69.6070835 C49.479264,68.4388115 51.367104,67.2705395 55.35072,66.8054195 C59.334336,66.3402995 61.452,67.0516595 63.501264,67.7411315 C65.550528,68.4306035 67.736592,69.1665875 71.791344,68.6905235 C75.846096,68.2144595 77.810544,67.0078835 79.712064,65.8423475 C81.441216,64.7780435 83.23056,63.6836435 86.63688,63.1555955 C89.6328,63.1008755 92.06784,59.9325875 92.06784,56.0310515 Z" opacity=".29"/>
  </g>
</svg>